<svg xmlns="http://www.w3.org/2000/svg" xmlns:xlink="http://www.w3.org/1999/xlink" width="500" zoomAndPan="magnify" viewBox="0 0 375 374.999991" height="500" preserveAspectRatio="xMidYMid meet" version="1.0"><defs><g/></defs><rect x="-37.5" width="450" fill="#ffffff" y="-37.499999" height="449.999989" fill-opacity="1"/><rect x="-37.5" width="450" fill="#ffffff" y="-37.499999" height="449.999989" fill-opacity="1"/><g fill="#000000" fill-opacity="1"><g transform="translate(91.572978, 242.065011)"><g><path d="M 126.671875 0 L 76.03125 0 C 70.363281 -45.164062 63.207031 -84.375 54.5625 -117.625 C 58.78125 -126.195312 62.375 -134.039062 65.34375 -141.15625 C 65.851562 -142.25 67.175781 -143.703125 69.3125 -145.515625 C 71.457031 -147.328125 73.296875 -148.234375 74.828125 -148.234375 L 109.46875 -148.234375 C 112.4375 -126.304688 116.441406 -101.890625 121.484375 -74.984375 C 126.535156 -48.085938 131.457031 -25.488281 136.25 -7.1875 C 136.25 -6.238281 135.085938 -4.800781 132.765625 -2.875 C 130.441406 -0.957031 128.410156 0 126.671875 0 Z M 39.640625 -19.28125 L 39.96875 -7.1875 C 39.96875 -6.238281 38.785156 -4.800781 36.421875 -2.875 C 34.066406 -0.957031 32.054688 0 30.390625 0 L -4.359375 0 C 7.117188 -19.457031 24.910156 -55.109375 49.015625 -106.953125 C 49.671875 -105.066406 50 -102.4375 50 -99.0625 C 50 -95.6875 49.503906 -90.800781 48.515625 -84.40625 C 47.535156 -78.019531 46.285156 -70.488281 44.765625 -61.8125 C 43.242188 -53.132812 42.117188 -46.109375 41.390625 -40.734375 C 51.847656 -39.140625 59.4375 -37.359375 64.15625 -35.390625 C 64.15625 -31.035156 63.425781 -27.804688 61.96875 -25.703125 C 54.414062 -25.046875 46.972656 -24.066406 39.640625 -22.765625 Z M 39.640625 -19.28125 "/></g></g></g><g fill="#ffffff" fill-opacity="1"><g transform="translate(187.499992, 229.380593)"><g><path d="M 36.890625 -31.109375 C 35.65625 -32.859375 32.140625 -33.625 28.109375 -33.625 C 24.984375 -33.625 21.609375 -33.15625 18.796875 -32.34375 C 12.0625 -30.203125 7.15625 -26.515625 5.921875 -24.984375 C 4.703125 -23.140625 4.390625 -21.609375 4.703125 -20.078125 C 5.3125 -18.859375 6.546875 -17.9375 8.375 -17.625 C 8.6875 -17.625 9 -17.625 9.296875 -17.9375 C 9.296875 -18.546875 9 -18.859375 8.6875 -18.859375 C 7.453125 -19.15625 6.546875 -19.765625 6.234375 -20.6875 C 5.921875 -21.609375 6.234375 -22.84375 7.15625 -24.0625 C 8.078125 -25.59375 12.984375 -28.96875 19.109375 -30.8125 C 21.96875 -31.625 25.234375 -32.03125 28.109375 -32.03125 C 31.78125 -32.03125 34.796875 -31.375 35.65625 -30.203125 C 35.96875 -29.890625 36.578125 -29.890625 36.890625 -29.890625 C 37.203125 -30.203125 37.203125 -30.8125 36.890625 -31.109375 Z M 19.71875 -27.4375 C 19.421875 -27.4375 19.109375 -26.828125 19.109375 -26.515625 C 20.953125 -19.46875 19.421875 -11.796875 17.265625 -7.8125 C 15.4375 -4.390625 12.46875 -0.765625 7.765625 -0.765625 C 7 -0.765625 6.1875 -0.875 5.3125 -1.078125 C 3.46875 -1.6875 2.25 -2.90625 1.640625 -4.75 C 1.015625 -6.890625 1.9375 -9.34375 2.5625 -10.265625 C 2.859375 -10.578125 2.859375 -10.890625 2.859375 -11.1875 C 2.703125 -11.34375 2.5 -11.4375 2.25 -11.4375 C 2.046875 -11.4375 1.78125 -11.34375 1.640625 -11.1875 C 0.40625 -9.96875 -0.515625 -6.890625 0.40625 -4.140625 C 0.71875 -2.609375 1.9375 -0.453125 5 0.15625 C 5.921875 0.453125 6.84375 0.453125 7.765625 0.453125 C 12.0625 0.453125 15.734375 -2 18.5 -6.890625 C 21.25 -12.109375 22.171875 -20.390625 20.640625 -26.828125 C 20.640625 -27.125 20.03125 -27.4375 19.71875 -27.4375 Z M 19.71875 -27.4375 "/></g></g></g><g fill="#000000" fill-opacity="1"><g transform="translate(225.460756, 224.9591)"><g><path d="M 16.125 -7.1875 C 15.859375 -7.1875 15.3125 -7.1875 15.046875 -6.90625 C 13.421875 -4.75 11.515625 -3.9375 9.625 -3.390625 C 10.171875 -4.46875 10.703125 -5.5625 10.703125 -6.90625 C 10.703125 -10.984375 7.953125 -14.640625 3.75 -14.640625 C 1.765625 -14.640625 0 -13.640625 -0.671875 -12.0625 C -1.484375 -10.703125 -0.953125 -8.546875 0.140625 -6.640625 C -0.140625 -4.75 0.140625 -3.125 1.21875 -2.03125 C 2.03125 -0.953125 3.390625 -0.40625 4.75 -0.40625 C 6.375 -0.40625 7.734375 -0.953125 8.546875 -2.03125 C 10.984375 -2.296875 13.6875 -3.125 16.125 -6.09375 C 16.40625 -6.375 16.40625 -6.90625 16.125 -7.1875 Z M 4.75 -1.765625 C 3.65625 -1.765625 2.84375 -2.03125 2.03125 -2.84375 C 1.765625 -3.390625 1.484375 -3.9375 1.21875 -4.75 C 2.578125 -3.390625 4.46875 -2.296875 6.375 -2.03125 C 5.828125 -1.765625 5.28125 -1.765625 4.75 -1.765625 Z M 8 -3.390625 C 7.453125 -3.390625 6.90625 -3.390625 6.375 -3.390625 C 3.65625 -3.65625 2.03125 -5.828125 1.484375 -6.90625 C 1.484375 -7.734375 1.765625 -8.546875 2.296875 -9.359375 C 2.296875 -9.625 2.296875 -9.890625 2.03125 -10.171875 C 1.765625 -10.171875 1.21875 -10.171875 1.21875 -9.890625 C 0.953125 -9.359375 0.671875 -9.078125 0.40625 -8.546875 C 0.140625 -9.625 0.140625 -10.703125 0.40625 -11.515625 C 0.8125 -12.609375 2.078125 -13.328125 3.53125 -13.328125 C 3.9375 -13.328125 4.34375 -13.28125 4.75 -13.15625 C 6.90625 -12.875 9.359375 -10.984375 9.359375 -6.90625 C 9.359375 -5.5625 8.8125 -4.203125 8 -3.390625 Z M 8 -3.390625 "/></g></g></g><g fill="#000000" fill-opacity="1"><g transform="translate(240.595008, 224.9591)"><g><path d="M 13.234375 -11.84375 C 12.296875 -12.78125 10.9375 -13.515625 9.53125 -13.515625 C 9.3125 -13.515625 9.125 -13.515625 8.90625 -13.46875 C 7 -13.1875 5.375 -11.5625 4.296875 -9.40625 C 4.296875 -9.125 4.296875 -8.578125 4.828125 -8.578125 C 4.921875 -8.5 5.015625 -8.5 5.0625 -8.5 C 5.28125 -8.5 5.46875 -8.671875 5.640625 -8.859375 C 6.328125 -10.4375 7.859375 -12.203125 9.765625 -12.203125 C 10.625 -12.203125 11.484375 -11.703125 12.15625 -11.03125 C 13.515625 -9.671875 13.515625 -7.234375 12.703125 -5.328125 C 11.34375 -3.15625 9.171875 -2.078125 6.46875 -2.078125 C 4.296875 -2.34375 2.671875 -4.25 1.578125 -6.953125 C 2.671875 -8.3125 4.828125 -11.84375 6.734375 -15.640625 C 9.171875 -21.0625 9.4375 -24.578125 7.546875 -26.203125 C 6.875 -26.75 6.140625 -27.015625 5.46875 -27.015625 C 5.0625 -27.015625 4.703125 -26.9375 4.296875 -26.75 C 0.765625 -25.390625 -0.859375 -18.890625 -0.859375 -12.921875 C -0.859375 -10.484375 -0.59375 -8.265625 0.21875 -6.421875 C 1.625 -3.203125 3.75 -1 6.46875 -1 C 9.578125 -1 12.203125 -1.9375 13.78125 -4.796875 C 14.859375 -7.234375 14.59375 -9.9375 13.234375 -11.84375 Z M 0.5 -12.921875 C 0.5 -20.515625 2.671875 -24.859375 4.828125 -25.671875 C 4.828125 -25.671875 5.109375 -25.9375 5.375 -25.9375 C 5.921875 -25.9375 6.1875 -25.671875 6.46875 -25.390625 C 8.359375 -23.765625 7 -19.4375 5.640625 -16.171875 C 4.015625 -13.1875 2.125 -10.21875 1.046875 -8.3125 C 0.765625 -9.9375 0.5 -11.296875 0.5 -12.921875 Z M 0.5 -12.921875 "/></g></g></g><g fill="#000000" fill-opacity="1"><g transform="translate(256.181026, 224.9591)"><g><path d="M 17.4375 -7.1875 C 17.390625 -7.1875 17.3125 -7.1875 17.265625 -7.1875 C 16.984375 -7.1875 16.71875 -7.140625 16.53125 -6.90625 C 15.5 -5.5625 14.78125 -4.203125 13.28125 -2.84375 C 13.28125 -3.125 13.5625 -3.65625 13.5625 -3.9375 C 14.375 -8.546875 10.296875 -13.6875 8.140625 -16.40625 C 7.765625 -16.765625 7.046875 -17.625 7.046875 -17.765625 C 7.328125 -19.109375 7.59375 -20.46875 7.59375 -21.546875 C 7.59375 -22.90625 6.5 -23.71875 5.6875 -23.71875 C 4.875 -23.71875 3.796875 -23.1875 3.796875 -21.828125 C 3.53125 -20.203125 4.34375 -19.109375 5.6875 -17.484375 C 5.15625 -15.859375 4.609375 -14.234375 3.796875 -13.15625 C 2.171875 -10.171875 0.546875 -8 0 -6.90625 C -0.265625 -6.640625 -0.1875 -6.0625 0.1875 -5.921875 C 0.265625 -5.875 0.3125 -5.875 0.40625 -5.875 C 0.765625 -5.875 0.953125 -6.234375 1.078125 -6.375 C 3.15625 -9.4375 5.109375 -12.65625 6.5 -16.125 C 6.78125 -15.859375 6.78125 -15.859375 7.046875 -15.59375 C 9.21875 -12.875 13.015625 -8.265625 12.203125 -4.203125 C 11.921875 -1.765625 10.296875 0.671875 7.59375 1.484375 C 7.59375 1.484375 7.328125 1.484375 7.328125 1.484375 C 6.5 1.765625 5.96875 1.765625 5.421875 1.765625 C 2.984375 1.765625 0.8125 0.40625 -0.546875 -1.765625 C -1.078125 -2.296875 -1.359375 -3.125 -1.625 -3.65625 C -2.4375 -7.1875 -0.8125 -10.984375 2.984375 -13.15625 C 3.25 -13.421875 3.53125 -13.6875 3.25 -14.234375 C 3.125 -14.375 2.984375 -14.453125 2.84375 -14.453125 C 2.71875 -14.453125 2.578125 -14.375 2.4375 -14.234375 C -1.890625 -11.796875 -3.796875 -7.453125 -2.71875 -3.390625 C -2.4375 -2.578125 -2.171875 -1.765625 -1.625 -0.953125 C -0.265625 1.484375 2.4375 3.125 5.421875 3.125 C 7.328125 3.125 8.671875 2.625 10.03125 1.765625 C 14.015625 -0.765625 15.453125 -3.078125 17.390625 -5.875 C 17.625 -6.1875 18.03125 -6.90625 17.4375 -7.1875 Z M 5.96875 -19.109375 C 5.421875 -19.921875 4.875 -20.734375 5.15625 -21.828125 C 5.15625 -22.375 5.421875 -22.375 5.6875 -22.375 C 5.96875 -22.375 6.234375 -22.09375 6.234375 -21.546875 C 6.234375 -20.734375 6.234375 -19.921875 5.96875 -19.109375 Z M 5.96875 -19.109375 "/></g></g></g></svg>